<?xml version="1.0" encoding="UTF-8" standalone="no"?>
<!DOCTYPE svg PUBLIC "-//W3C//DTD SVG 1.1//EN"
 "http://www.w3.org/Graphics/SVG/1.1/DTD/svg11.dtd">
<!-- Generated by graphviz version 12.2.1 (20241206.2353)
 -->
<!-- Title: model Pages: 1 -->
<svg width="158pt" height="834pt"
 viewBox="0.00 0.00 158.00 833.75" xmlns="http://www.w3.org/2000/svg" xmlns:xlink="http://www.w3.org/1999/xlink">
<g id="graph0" class="graph" transform="scale(1 1) rotate(0) translate(4 829.75)">
<title>model</title>
<polygon fill="white" stroke="none" points="-4,4 -4,-829.75 154,-829.75 154,4 -4,4"/>
<g id="clust1" class="cluster">
<title>cluster_2</title>
<polygon fill="none" stroke="black" stroke-dasharray="5,2" points="8,-8 8,-785.25 142,-785.25 142,-8 8,-8"/>
<text text-anchor="middle" x="40.75" y="-769.85" font-family="Times,serif" font-size="12.00">Sequential</text>
</g>
<!-- 0 -->
<g id="node1" class="node">
<title>0</title>
<polygon fill="lightyellow" stroke="none" points="120.25,-825.75 29.75,-825.75 29.75,-793.25 120.25,-793.25 120.25,-825.75"/>
<polygon fill="none" stroke="black" points="29.75,-793.25 29.75,-825.75 90.75,-825.75 90.75,-793.25 29.75,-793.25"/>
<text text-anchor="start" x="34.75" y="-811.25" font-family="Linux libertine" font-size="10.00">input&#45;tensor</text>
<text text-anchor="start" x="44.12" y="-800" font-family="Linux libertine" font-size="10.00">depth:0</text>
<polygon fill="none" stroke="black" points="90.75,-793.25 90.75,-825.75 120.25,-825.75 120.25,-793.25 90.75,-793.25"/>
<text text-anchor="start" x="95.75" y="-805.62" font-family="Linux libertine" font-size="10.00">(32,)</text>
</g>
<!-- 1 -->
<g id="node2" class="node">
<title>1</title>
<polygon fill="#c1ffc1" stroke="none" points="133.88,-755 16.12,-755 16.12,-712.5 133.88,-712.5 133.88,-755"/>
<polygon fill="none" stroke="black" points="16.12,-712.5 16.12,-755 58.38,-755 58.38,-712.5 16.12,-712.5"/>
<text text-anchor="start" x="24.12" y="-735.5" font-family="Linux libertine" font-size="10.00">Linear</text>
<text text-anchor="start" x="21.12" y="-724.25" font-family="Linux libertine" font-size="10.00">depth:2</text>
<polygon fill="none" stroke="black" points="58.38,-733.75 58.38,-755 101.38,-755 101.38,-733.75 58.38,-733.75"/>
<text text-anchor="start" x="67.88" y="-740.5" font-family="Linux libertine" font-size="10.00">input:</text>
<polygon fill="none" stroke="black" points="101.38,-733.75 101.38,-755 133.88,-755 133.88,-733.75 101.38,-733.75"/>
<text text-anchor="start" x="106.38" y="-740.5" font-family="Linux libertine" font-size="10.00">(32,) </text>
<polygon fill="none" stroke="black" points="58.38,-712.5 58.38,-733.75 101.38,-733.75 101.38,-712.5 58.38,-712.5"/>
<text text-anchor="start" x="63.38" y="-719.25" font-family="Linux libertine" font-size="10.00">output: </text>
<polygon fill="none" stroke="black" points="101.38,-712.5 101.38,-733.75 133.88,-733.75 133.88,-712.5 101.38,-712.5"/>
<text text-anchor="start" x="106.38" y="-719.25" font-family="Linux libertine" font-size="10.00">(64,) </text>
</g>
<!-- 0&#45;&gt;1 -->
<g id="edge1" class="edge">
<title>0&#45;&gt;1</title>
<path fill="none" stroke="black" d="M75,-793.58C75,-785.76 75,-775.88 75,-766.46"/>
<polygon fill="black" stroke="black" points="78.5,-766.48 75,-756.48 71.5,-766.48 78.5,-766.48"/>
</g>
<!-- 2 -->
<g id="node3" class="node">
<title>2</title>
<polygon fill="#c1ffc1" stroke="none" points="133.88,-676.5 16.12,-676.5 16.12,-634 133.88,-634 133.88,-676.5"/>
<polygon fill="none" stroke="black" points="16.12,-634 16.12,-676.5 58.38,-676.5 58.38,-634 16.12,-634"/>
<text text-anchor="start" x="24.5" y="-657" font-family="Linux libertine" font-size="10.00">ReLU</text>
<text text-anchor="start" x="21.12" y="-645.75" font-family="Linux libertine" font-size="10.00">depth:2</text>
<polygon fill="none" stroke="black" points="58.38,-655.25 58.38,-676.5 101.38,-676.5 101.38,-655.25 58.38,-655.25"/>
<text text-anchor="start" x="67.88" y="-662" font-family="Linux libertine" font-size="10.00">input:</text>
<polygon fill="none" stroke="black" points="101.38,-655.25 101.38,-676.5 133.88,-676.5 133.88,-655.25 101.38,-655.25"/>
<text text-anchor="start" x="106.38" y="-662" font-family="Linux libertine" font-size="10.00">(64,) </text>
<polygon fill="none" stroke="black" points="58.38,-634 58.38,-655.25 101.38,-655.25 101.38,-634 58.38,-634"/>
<text text-anchor="start" x="63.38" y="-640.75" font-family="Linux libertine" font-size="10.00">output: </text>
<polygon fill="none" stroke="black" points="101.38,-634 101.38,-655.25 133.88,-655.25 133.88,-634 101.38,-634"/>
<text text-anchor="start" x="106.38" y="-640.75" font-family="Linux libertine" font-size="10.00">(64,) </text>
</g>
<!-- 1&#45;&gt;2 -->
<g id="edge2" class="edge">
<title>1&#45;&gt;2</title>
<path fill="none" stroke="black" d="M75,-712.65C75,-705.07 75,-696.25 75,-687.86"/>
<polygon fill="black" stroke="black" points="78.5,-687.99 75,-677.99 71.5,-687.99 78.5,-687.99"/>
</g>
<!-- 3 -->
<g id="node4" class="node">
<title>3</title>
<polygon fill="#c1ffc1" stroke="none" points="133.88,-598 16.12,-598 16.12,-555.5 133.88,-555.5 133.88,-598"/>
<polygon fill="none" stroke="black" points="16.12,-555.5 16.12,-598 58.38,-598 58.38,-555.5 16.12,-555.5"/>
<text text-anchor="start" x="24.12" y="-578.5" font-family="Linux libertine" font-size="10.00">Linear</text>
<text text-anchor="start" x="21.12" y="-567.25" font-family="Linux libertine" font-size="10.00">depth:2</text>
<polygon fill="none" stroke="black" points="58.38,-576.75 58.38,-598 101.38,-598 101.38,-576.75 58.38,-576.75"/>
<text text-anchor="start" x="67.88" y="-583.5" font-family="Linux libertine" font-size="10.00">input:</text>
<polygon fill="none" stroke="black" points="101.38,-576.75 101.38,-598 133.88,-598 133.88,-576.75 101.38,-576.75"/>
<text text-anchor="start" x="106.38" y="-583.5" font-family="Linux libertine" font-size="10.00">(64,) </text>
<polygon fill="none" stroke="black" points="58.38,-555.5 58.38,-576.75 101.38,-576.75 101.38,-555.5 58.38,-555.5"/>
<text text-anchor="start" x="63.38" y="-562.25" font-family="Linux libertine" font-size="10.00">output: </text>
<polygon fill="none" stroke="black" points="101.38,-555.5 101.38,-576.75 133.88,-576.75 133.88,-555.5 101.38,-555.5"/>
<text text-anchor="start" x="106.38" y="-562.25" font-family="Linux libertine" font-size="10.00">(64,) </text>
</g>
<!-- 2&#45;&gt;3 -->
<g id="edge3" class="edge">
<title>2&#45;&gt;3</title>
<path fill="none" stroke="black" d="M75,-634.15C75,-626.57 75,-617.75 75,-609.36"/>
<polygon fill="black" stroke="black" points="78.5,-609.49 75,-599.49 71.5,-609.49 78.5,-609.49"/>
</g>
<!-- 4 -->
<g id="node5" class="node">
<title>4</title>
<polygon fill="#c1ffc1" stroke="none" points="133.88,-519.5 16.12,-519.5 16.12,-477 133.88,-477 133.88,-519.5"/>
<polygon fill="none" stroke="black" points="16.12,-477 16.12,-519.5 58.38,-519.5 58.38,-477 16.12,-477"/>
<text text-anchor="start" x="24.5" y="-500" font-family="Linux libertine" font-size="10.00">ReLU</text>
<text text-anchor="start" x="21.12" y="-488.75" font-family="Linux libertine" font-size="10.00">depth:2</text>
<polygon fill="none" stroke="black" points="58.38,-498.25 58.38,-519.5 101.38,-519.5 101.38,-498.25 58.38,-498.25"/>
<text text-anchor="start" x="67.88" y="-505" font-family="Linux libertine" font-size="10.00">input:</text>
<polygon fill="none" stroke="black" points="101.38,-498.25 101.38,-519.5 133.88,-519.5 133.88,-498.25 101.38,-498.25"/>
<text text-anchor="start" x="106.38" y="-505" font-family="Linux libertine" font-size="10.00">(64,) </text>
<polygon fill="none" stroke="black" points="58.38,-477 58.38,-498.25 101.38,-498.25 101.38,-477 58.38,-477"/>
<text text-anchor="start" x="63.38" y="-483.75" font-family="Linux libertine" font-size="10.00">output: </text>
<polygon fill="none" stroke="black" points="101.38,-477 101.38,-498.25 133.88,-498.25 133.88,-477 101.38,-477"/>
<text text-anchor="start" x="106.38" y="-483.75" font-family="Linux libertine" font-size="10.00">(64,) </text>
</g>
<!-- 3&#45;&gt;4 -->
<g id="edge4" class="edge">
<title>3&#45;&gt;4</title>
<path fill="none" stroke="black" d="M75,-555.65C75,-548.07 75,-539.25 75,-530.86"/>
<polygon fill="black" stroke="black" points="78.5,-530.99 75,-520.99 71.5,-530.99 78.5,-530.99"/>
</g>
<!-- 5 -->
<g id="node6" class="node">
<title>5</title>
<polygon fill="#c1ffc1" stroke="none" points="133.88,-441 16.12,-441 16.12,-398.5 133.88,-398.5 133.88,-441"/>
<polygon fill="none" stroke="black" points="16.12,-398.5 16.12,-441 58.38,-441 58.38,-398.5 16.12,-398.5"/>
<text text-anchor="start" x="24.12" y="-421.5" font-family="Linux libertine" font-size="10.00">Linear</text>
<text text-anchor="start" x="21.12" y="-410.25" font-family="Linux libertine" font-size="10.00">depth:2</text>
<polygon fill="none" stroke="black" points="58.38,-419.75 58.38,-441 101.38,-441 101.38,-419.75 58.38,-419.75"/>
<text text-anchor="start" x="67.88" y="-426.5" font-family="Linux libertine" font-size="10.00">input:</text>
<polygon fill="none" stroke="black" points="101.38,-419.75 101.38,-441 133.88,-441 133.88,-419.75 101.38,-419.75"/>
<text text-anchor="start" x="106.38" y="-426.5" font-family="Linux libertine" font-size="10.00">(64,) </text>
<polygon fill="none" stroke="black" points="58.38,-398.5 58.38,-419.75 101.38,-419.75 101.38,-398.5 58.38,-398.5"/>
<text text-anchor="start" x="63.38" y="-405.25" font-family="Linux libertine" font-size="10.00">output: </text>
<polygon fill="none" stroke="black" points="101.38,-398.5 101.38,-419.75 133.88,-419.75 133.88,-398.5 101.38,-398.5"/>
<text text-anchor="start" x="106.38" y="-405.25" font-family="Linux libertine" font-size="10.00">(32,) </text>
</g>
<!-- 4&#45;&gt;5 -->
<g id="edge5" class="edge">
<title>4&#45;&gt;5</title>
<path fill="none" stroke="black" d="M75,-477.15C75,-469.57 75,-460.75 75,-452.36"/>
<polygon fill="black" stroke="black" points="78.5,-452.49 75,-442.49 71.5,-452.49 78.5,-452.49"/>
</g>
<!-- 6 -->
<g id="node7" class="node">
<title>6</title>
<polygon fill="#c1ffc1" stroke="none" points="133.88,-362.5 16.12,-362.5 16.12,-320 133.88,-320 133.88,-362.5"/>
<polygon fill="none" stroke="black" points="16.12,-320 16.12,-362.5 58.38,-362.5 58.38,-320 16.12,-320"/>
<text text-anchor="start" x="24.5" y="-343" font-family="Linux libertine" font-size="10.00">ReLU</text>
<text text-anchor="start" x="21.12" y="-331.75" font-family="Linux libertine" font-size="10.00">depth:2</text>
<polygon fill="none" stroke="black" points="58.38,-341.25 58.38,-362.5 101.38,-362.5 101.38,-341.25 58.38,-341.25"/>
<text text-anchor="start" x="67.88" y="-348" font-family="Linux libertine" font-size="10.00">input:</text>
<polygon fill="none" stroke="black" points="101.38,-341.25 101.38,-362.5 133.88,-362.5 133.88,-341.25 101.38,-341.25"/>
<text text-anchor="start" x="106.38" y="-348" font-family="Linux libertine" font-size="10.00">(32,) </text>
<polygon fill="none" stroke="black" points="58.38,-320 58.38,-341.25 101.38,-341.25 101.38,-320 58.38,-320"/>
<text text-anchor="start" x="63.38" y="-326.75" font-family="Linux libertine" font-size="10.00">output: </text>
<polygon fill="none" stroke="black" points="101.38,-320 101.38,-341.25 133.88,-341.25 133.88,-320 101.38,-320"/>
<text text-anchor="start" x="106.38" y="-326.75" font-family="Linux libertine" font-size="10.00">(32,) </text>
</g>
<!-- 5&#45;&gt;6 -->
<g id="edge6" class="edge">
<title>5&#45;&gt;6</title>
<path fill="none" stroke="black" d="M75,-398.65C75,-391.07 75,-382.25 75,-373.86"/>
<polygon fill="black" stroke="black" points="78.5,-373.99 75,-363.99 71.5,-373.99 78.5,-373.99"/>
</g>
<!-- 7 -->
<g id="node8" class="node">
<title>7</title>
<polygon fill="#c1ffc1" stroke="none" points="133.88,-284 16.12,-284 16.12,-241.5 133.88,-241.5 133.88,-284"/>
<polygon fill="none" stroke="black" points="16.12,-241.5 16.12,-284 58.38,-284 58.38,-241.5 16.12,-241.5"/>
<text text-anchor="start" x="24.12" y="-264.5" font-family="Linux libertine" font-size="10.00">Linear</text>
<text text-anchor="start" x="21.12" y="-253.25" font-family="Linux libertine" font-size="10.00">depth:2</text>
<polygon fill="none" stroke="black" points="58.38,-262.75 58.38,-284 101.38,-284 101.38,-262.75 58.38,-262.75"/>
<text text-anchor="start" x="67.88" y="-269.5" font-family="Linux libertine" font-size="10.00">input:</text>
<polygon fill="none" stroke="black" points="101.38,-262.75 101.38,-284 133.88,-284 133.88,-262.75 101.38,-262.75"/>
<text text-anchor="start" x="106.38" y="-269.5" font-family="Linux libertine" font-size="10.00">(32,) </text>
<polygon fill="none" stroke="black" points="58.38,-241.5 58.38,-262.75 101.38,-262.75 101.38,-241.5 58.38,-241.5"/>
<text text-anchor="start" x="63.38" y="-248.25" font-family="Linux libertine" font-size="10.00">output: </text>
<polygon fill="none" stroke="black" points="101.38,-241.5 101.38,-262.75 133.88,-262.75 133.88,-241.5 101.38,-241.5"/>
<text text-anchor="start" x="106.38" y="-248.25" font-family="Linux libertine" font-size="10.00">(16,) </text>
</g>
<!-- 6&#45;&gt;7 -->
<g id="edge7" class="edge">
<title>6&#45;&gt;7</title>
<path fill="none" stroke="black" d="M75,-320.15C75,-312.57 75,-303.75 75,-295.36"/>
<polygon fill="black" stroke="black" points="78.5,-295.49 75,-285.49 71.5,-295.49 78.5,-295.49"/>
</g>
<!-- 8 -->
<g id="node9" class="node">
<title>8</title>
<polygon fill="#c1ffc1" stroke="none" points="133.88,-205.5 16.12,-205.5 16.12,-163 133.88,-163 133.88,-205.5"/>
<polygon fill="none" stroke="black" points="16.12,-163 16.12,-205.5 58.38,-205.5 58.38,-163 16.12,-163"/>
<text text-anchor="start" x="24.5" y="-186" font-family="Linux libertine" font-size="10.00">ReLU</text>
<text text-anchor="start" x="21.12" y="-174.75" font-family="Linux libertine" font-size="10.00">depth:2</text>
<polygon fill="none" stroke="black" points="58.38,-184.25 58.38,-205.5 101.38,-205.5 101.38,-184.25 58.38,-184.25"/>
<text text-anchor="start" x="67.88" y="-191" font-family="Linux libertine" font-size="10.00">input:</text>
<polygon fill="none" stroke="black" points="101.38,-184.25 101.38,-205.5 133.88,-205.5 133.88,-184.25 101.38,-184.25"/>
<text text-anchor="start" x="106.38" y="-191" font-family="Linux libertine" font-size="10.00">(16,) </text>
<polygon fill="none" stroke="black" points="58.38,-163 58.38,-184.25 101.38,-184.25 101.38,-163 58.38,-163"/>
<text text-anchor="start" x="63.38" y="-169.75" font-family="Linux libertine" font-size="10.00">output: </text>
<polygon fill="none" stroke="black" points="101.38,-163 101.38,-184.25 133.88,-184.25 133.88,-163 101.38,-163"/>
<text text-anchor="start" x="106.38" y="-169.75" font-family="Linux libertine" font-size="10.00">(16,) </text>
</g>
<!-- 7&#45;&gt;8 -->
<g id="edge8" class="edge">
<title>7&#45;&gt;8</title>
<path fill="none" stroke="black" d="M75,-241.65C75,-234.07 75,-225.25 75,-216.86"/>
<polygon fill="black" stroke="black" points="78.5,-216.99 75,-206.99 71.5,-216.99 78.5,-216.99"/>
</g>
<!-- 9 -->
<g id="node10" class="node">
<title>9</title>
<polygon fill="#c1ffc1" stroke="none" points="133.88,-127 16.12,-127 16.12,-84.5 133.88,-84.5 133.88,-127"/>
<polygon fill="none" stroke="black" points="16.12,-84.5 16.12,-127 58.38,-127 58.38,-84.5 16.12,-84.5"/>
<text text-anchor="start" x="24.12" y="-107.5" font-family="Linux libertine" font-size="10.00">Linear</text>
<text text-anchor="start" x="21.12" y="-96.25" font-family="Linux libertine" font-size="10.00">depth:2</text>
<polygon fill="none" stroke="black" points="58.38,-105.75 58.38,-127 101.38,-127 101.38,-105.75 58.38,-105.75"/>
<text text-anchor="start" x="67.88" y="-112.5" font-family="Linux libertine" font-size="10.00">input:</text>
<polygon fill="none" stroke="black" points="101.38,-105.75 101.38,-127 133.88,-127 133.88,-105.75 101.38,-105.75"/>
<text text-anchor="start" x="106.38" y="-112.5" font-family="Linux libertine" font-size="10.00">(16,) </text>
<polygon fill="none" stroke="black" points="58.38,-84.5 58.38,-105.75 101.38,-105.75 101.38,-84.5 58.38,-84.5"/>
<text text-anchor="start" x="63.38" y="-91.25" font-family="Linux libertine" font-size="10.00">output: </text>
<polygon fill="none" stroke="black" points="101.38,-84.5 101.38,-105.75 133.88,-105.75 133.88,-84.5 101.38,-84.5"/>
<text text-anchor="start" x="109" y="-91.25" font-family="Linux libertine" font-size="10.00">(1,) </text>
</g>
<!-- 8&#45;&gt;9 -->
<g id="edge9" class="edge">
<title>8&#45;&gt;9</title>
<path fill="none" stroke="black" d="M75,-163.15C75,-155.57 75,-146.75 75,-138.36"/>
<polygon fill="black" stroke="black" points="78.5,-138.49 75,-128.49 71.5,-138.49 78.5,-138.49"/>
</g>
<!-- 10 -->
<g id="node11" class="node">
<title>10</title>
<polygon fill="lightyellow" stroke="none" points="120.62,-48.5 29.38,-48.5 29.38,-16 120.62,-16 120.62,-48.5"/>
<polygon fill="none" stroke="black" points="29.38,-16 29.38,-48.5 96.38,-48.5 96.38,-16 29.38,-16"/>
<text text-anchor="start" x="34.38" y="-34" font-family="Linux libertine" font-size="10.00">output&#45;tensor</text>
<text text-anchor="start" x="46.75" y="-22.75" font-family="Linux libertine" font-size="10.00">depth:0</text>
<polygon fill="none" stroke="black" points="96.38,-16 96.38,-48.5 120.62,-48.5 120.62,-16 96.38,-16"/>
<text text-anchor="start" x="101.38" y="-28.38" font-family="Linux libertine" font-size="10.00">(1,)</text>
</g>
<!-- 9&#45;&gt;10 -->
<g id="edge10" class="edge">
<title>9&#45;&gt;10</title>
<path fill="none" stroke="black" d="M75,-84.83C75,-77.06 75,-68.03 75,-59.73"/>
<polygon fill="black" stroke="black" points="78.5,-59.81 75,-49.81 71.5,-59.81 78.5,-59.81"/>
</g>
</g>
</svg>
